M48
; DRILL file {KiCad 9.0.7} date 2026-04-19T16:52:50+0530
; FORMAT={-:-/ absolute / metric / decimal}
; #@! TF.CreationDate,2026-04-19T16:52:50+05:30
; #@! TF.GenerationSoftware,Kicad,Pcbnew,9.0.7
; #@! TF.FileFunction,Plated,1,2,PTH
FMAT,2
METRIC
; #@! TA.AperFunction,Plated,PTH,ViaDrill
T1C0.300
; #@! TA.AperFunction,Plated,PTH,ComponentDrill
T2C0.889
; #@! TA.AperFunction,Plated,PTH,ComponentDrill
T3C0.900
; #@! TA.AperFunction,Plated,PTH,ComponentDrill
T4C1.016
; #@! TA.AperFunction,Plated,PTH,ComponentDrill
T5C1.050
; #@! TA.AperFunction,Plated,PTH,ComponentDrill
T6C1.397
%
G90
G05
T1
X112.4Y-90.7
X114.7Y-107.8
X117.2Y-105.6
X122.3Y-116.8
X124.5Y-96.2
X137.5Y-90.4
X138.2Y-86.3
X138.9Y-83.2
X144.1Y-93.4
X151.9Y-96.3
X155.5Y-102.1
X159.7Y-91.1
X161.7Y-96.0
X163.8Y-118.3
X167.9Y-112.3
X192.2Y-73.8
X193.4Y-101.6
X193.5Y-80.7
T2
X119.865Y-113.08
X119.865Y-115.62
X119.865Y-118.16
X127.485Y-125.78
X130.025Y-125.78
X132.565Y-125.78
X159.49Y-113.241
X159.49Y-115.781
X159.49Y-118.321
X167.11Y-125.941
X169.65Y-125.941
X172.19Y-125.941
T3
X126.85Y-102.92
X126.85Y-108.0
X133.2Y-102.92
X133.2Y-108.0
X166.475Y-103.081
X166.475Y-108.161
X172.825Y-103.081
X172.825Y-108.161
T4
X141.86Y-68.4
X141.86Y-70.94
X141.86Y-73.48
X141.86Y-76.02
X141.86Y-78.56
X141.86Y-81.1
X141.86Y-83.64
X141.86Y-86.18
X141.86Y-88.72
X141.86Y-91.26
X141.86Y-93.8
X141.86Y-96.34
X157.1Y-68.4
X157.1Y-70.94
X157.1Y-73.48
X157.1Y-76.02
X157.1Y-78.56
X157.1Y-81.1
X157.1Y-83.64
X157.1Y-86.18
X157.1Y-88.72
X157.1Y-91.26
X157.1Y-93.8
X157.1Y-96.34
T5
X99.006Y-86.35
X99.006Y-92.85
X103.506Y-86.35
X103.506Y-92.85
X109.512Y-65.4
X109.512Y-71.9
X109.606Y-76.95
X109.606Y-83.45
X110.312Y-96.1
X110.312Y-102.6
X114.012Y-65.4
X114.012Y-71.9
X114.106Y-76.95
X114.106Y-83.45
X114.812Y-96.1
X114.812Y-102.6
X120.006Y-86.95
X120.006Y-93.45
X124.506Y-86.95
X124.506Y-93.45
X173.244Y-86.4
X173.244Y-92.9
X177.744Y-86.4
X177.744Y-92.9
X183.844Y-77.4
X183.844Y-83.9
X183.95Y-65.75
X183.95Y-72.25
X184.194Y-95.65
X184.194Y-102.15
X188.344Y-77.4
X188.344Y-83.9
X188.45Y-65.75
X188.45Y-72.25
X188.694Y-95.65
X188.694Y-102.15
X194.844Y-86.6
X194.844Y-93.1
X199.344Y-86.6
X199.344Y-93.1
T6
X122.405Y-108.953
X122.405Y-122.287
X137.645Y-108.953
X137.645Y-122.287
X162.03Y-109.114
X162.03Y-122.449
X177.27Y-109.114
X177.27Y-122.449
M30
