%TF.GenerationSoftware,KiCad,Pcbnew,9.0.7*%
%TF.CreationDate,2026-04-19T16:52:46+05:30*%
%TF.ProjectId,Prenim,5072656e-696d-42e6-9b69-6361645f7063,rev?*%
%TF.SameCoordinates,Original*%
%TF.FileFunction,Soldermask,Bot*%
%TF.FilePolarity,Negative*%
%FSLAX46Y46*%
G04 Gerber Fmt 4.6, Leading zero omitted, Abs format (unit mm)*
G04 Created by KiCad (PCBNEW 9.0.7) date 2026-04-19 16:52:46*
%MOMM*%
%LPD*%
G01*
G04 APERTURE LIST*
%ADD10C,2.083600*%
%ADD11C,1.779000*%
%ADD12C,1.982000*%
%ADD13C,2.490000*%
%TA.AperFunction,ComponentPad*%
%ADD14C,1.879600*%
%TD*%
%TA.AperFunction,ComponentPad*%
%ADD15C,1.575000*%
%TD*%
%TA.AperFunction,ComponentPad*%
%ADD16C,1.778000*%
%TD*%
%TA.AperFunction,ComponentPad*%
%ADD17C,2.286000*%
%TD*%
%TA.AperFunction,ViaPad*%
%ADD18C,0.600000*%
%TD*%
%TA.AperFunction,Conductor*%
%ADD19C,0.200000*%
%TD*%
%ADD20C,0.150000*%
%ADD21C,0.127000*%
%ADD22C,0.200000*%
%TA.AperFunction,Profile*%
%ADD23C,0.050000*%
%TD*%
G04 APERTURE END LIST*
D10*
%TO.C,U1*%
X141860000Y-68400000D03*
X141860000Y-70940000D03*
X141860000Y-73480000D03*
X141860000Y-76020000D03*
X141860000Y-78560000D03*
X141860000Y-81100000D03*
X141860000Y-83640000D03*
X141860000Y-86180000D03*
X141860000Y-88720000D03*
X141860000Y-91260000D03*
X141860000Y-93800000D03*
X141860000Y-96340000D03*
X157100000Y-96340000D03*
X157100000Y-93800000D03*
X157100000Y-91260000D03*
X157100000Y-88720000D03*
X157100000Y-86180000D03*
X157100000Y-83640000D03*
X157100000Y-81100000D03*
X157100000Y-78560000D03*
X157100000Y-76020000D03*
X157100000Y-73480000D03*
X157100000Y-70940000D03*
X157100000Y-68400000D03*
%TD*%
D11*
%TO.C,SW9*%
X114012500Y-65400000D03*
X114012500Y-71900000D03*
X109512500Y-65400000D03*
X109512500Y-71900000D03*
%TD*%
%TO.C,SW7*%
X103506250Y-86350000D03*
X103506250Y-92850000D03*
X99006250Y-86350000D03*
X99006250Y-92850000D03*
%TD*%
%TO.C,SW8*%
X124506250Y-86950000D03*
X124506250Y-93450000D03*
X120006250Y-86950000D03*
X120006250Y-93450000D03*
%TD*%
D12*
%TO.C,U3*%
X166475000Y-103081281D03*
X172825000Y-103081281D03*
X166475000Y-108161281D03*
X172825000Y-108161281D03*
X167110000Y-125941281D03*
X169650000Y-125941281D03*
X172190000Y-125941281D03*
D13*
X162030000Y-109113781D03*
X162030000Y-122448781D03*
X177270000Y-122448781D03*
X177270000Y-109113781D03*
D12*
X159490000Y-113241281D03*
X159490000Y-115781281D03*
X159490000Y-118321281D03*
%TD*%
D11*
%TO.C,SW5*%
X177743750Y-86400000D03*
X177743750Y-92900000D03*
X173243750Y-86400000D03*
X173243750Y-92900000D03*
%TD*%
D12*
%TO.C,U2*%
X126850000Y-102920000D03*
X133200000Y-102920000D03*
X126850000Y-108000000D03*
X133200000Y-108000000D03*
X127485000Y-125780000D03*
X130025000Y-125780000D03*
X132565000Y-125780000D03*
D13*
X122405000Y-108952500D03*
X122405000Y-122287500D03*
X137645000Y-122287500D03*
X137645000Y-108952500D03*
D12*
X119865000Y-113080000D03*
X119865000Y-115620000D03*
X119865000Y-118160000D03*
%TD*%
D11*
%TO.C,SW2*%
X114812500Y-96100000D03*
X114812500Y-102600000D03*
X110312500Y-96100000D03*
X110312500Y-102600000D03*
%TD*%
%TO.C,SW4*%
X199343750Y-86600000D03*
X199343750Y-93100000D03*
X194843750Y-86600000D03*
X194843750Y-93100000D03*
%TD*%
%TO.C,SW3*%
X188343750Y-77400000D03*
X188343750Y-83900000D03*
X183843750Y-77400000D03*
X183843750Y-83900000D03*
%TD*%
%TO.C,SW10*%
X188450000Y-65750000D03*
X188450000Y-72250000D03*
X183950000Y-65750000D03*
X183950000Y-72250000D03*
%TD*%
%TO.C,SW1*%
X188693750Y-95650000D03*
X188693750Y-102150000D03*
X184193750Y-95650000D03*
X184193750Y-102150000D03*
%TD*%
%TO.C,SW6*%
X114106250Y-76950000D03*
X114106250Y-83450000D03*
X109606250Y-76950000D03*
X109606250Y-83450000D03*
%TD*%
D14*
%TO.P,U1,1,Tx*%
%TO.N,unconnected-(U1-Tx-Pad1)*%
X141860000Y-68400000D03*
%TO.P,U1,2,Rx*%
%TO.N,unconnected-(U1-Rx-Pad2)*%
X141860000Y-70940000D03*
%TO.P,U1,3,gnd*%
%TO.N,unconnected-(U1-gnd-Pad3)*%
X141860000Y-73480000D03*
%TO.P,U1,4,gnd*%
%TO.N,/gnd*%
X141860000Y-76020000D03*
%TO.P,U1,5,2*%
%TO.N,/R1*%
X141860000Y-78560000D03*
%TO.P,U1,6,3*%
%TO.N,/L1*%
X141860000Y-81100000D03*
%TO.P,U1,7,4*%
%TO.N,/JSW2*%
X141860000Y-83640000D03*
%TO.P,U1,8,5*%
%TO.N,/JSW1*%
X141860000Y-86180000D03*
%TO.P,U1,9,6*%
%TO.N,Net-(U1-6)*%
X141860000Y-88720000D03*
%TO.P,U1,10,7*%
%TO.N,Net-(U1-7)*%
X141860000Y-91260000D03*
%TO.P,U1,11,8*%
%TO.N,Net-(U1-8)*%
X141860000Y-93800000D03*
%TO.P,U1,12,9*%
%TO.N,Net-(U1-9)*%
X141860000Y-96340000D03*
%TO.P,U1,13,10*%
%TO.N,Net-(U1-10)*%
X157100000Y-96340000D03*
%TO.P,U1,14,16*%
%TO.N,Net-(U1-16)*%
X157100000Y-93800000D03*
%TO.P,U1,15,15*%
%TO.N,Net-(SW6-Pad1)*%
X157100000Y-91260000D03*
%TO.P,U1,16,14*%
%TO.N,Net-(U1-14)*%
X157100000Y-88720000D03*
%TO.P,U1,17,A0*%
%TO.N,/VRx1*%
X157100000Y-86180000D03*
%TO.P,U1,18,A1*%
%TO.N,/VRy1*%
X157100000Y-83640000D03*
%TO.P,U1,19,A2*%
%TO.N,/VRx2*%
X157100000Y-81100000D03*
%TO.P,U1,20,A3*%
%TO.N,/VRy2*%
X157100000Y-78560000D03*
%TO.P,U1,21,vcc*%
%TO.N,/gnd*%
X157100000Y-76020000D03*
%TO.P,U1,22,RST*%
%TO.N,unconnected-(U1-RST-Pad22)*%
X157100000Y-73480000D03*
%TO.P,U1,23,GND*%
%TO.N,/vcc*%
X157100000Y-70940000D03*
%TO.P,U1,24,RAW*%
%TO.N,unconnected-(U1-RAW-Pad24)*%
X157100000Y-68400000D03*
%TD*%
D15*
%TO.P,SW9,1,1*%
%TO.N,/gnd*%
X114012500Y-65400000D03*
%TO.P,SW9,2,2*%
%TO.N,/L1*%
X114012500Y-71900000D03*
%TO.P,SW9,3*%
%TO.N,N/C*%
X109512500Y-65400000D03*
%TO.P,SW9,4*%
X109512500Y-71900000D03*
%TD*%
%TO.P,SW7,1,1*%
%TO.N,Net-(U1-16)*%
X103506250Y-86350000D03*
%TO.P,SW7,2,2*%
%TO.N,/vcc*%
X103506250Y-92850000D03*
%TO.P,SW7,3*%
%TO.N,N/C*%
X99006250Y-86350000D03*
%TO.P,SW7,4*%
X99006250Y-92850000D03*
%TD*%
%TO.P,SW8,1,1*%
%TO.N,Net-(U1-10)*%
X124506250Y-86950000D03*
%TO.P,SW8,2,2*%
%TO.N,/vcc*%
X124506250Y-93450000D03*
%TO.P,SW8,3*%
%TO.N,N/C*%
X120006250Y-86950000D03*
%TO.P,SW8,4*%
X120006250Y-93450000D03*
%TD*%
D16*
%TO.P,U3,B1A,SEL+*%
%TO.N,/JSW2*%
X166475000Y-103081281D03*
%TO.P,U3,B1B*%
%TO.N,N/C*%
X172825000Y-103081281D03*
%TO.P,U3,B2A,SEL-*%
%TO.N,/gnd*%
X166475000Y-108161281D03*
%TO.P,U3,B2B*%
%TO.N,N/C*%
X172825000Y-108161281D03*
%TO.P,U3,H1,H+*%
%TO.N,/vcc*%
X167110000Y-125941281D03*
%TO.P,U3,H2,H*%
%TO.N,/VRx2*%
X169650000Y-125941281D03*
%TO.P,U3,H3,H-*%
%TO.N,/gnd*%
X172190000Y-125941281D03*
D17*
%TO.P,U3,S1,SHIELD*%
%TO.N,unconnected-(U3-SHIELD-PadS1)_3*%
X162030000Y-109113781D03*
%TO.P,U3,S2,SHIELD*%
%TO.N,unconnected-(U3-SHIELD-PadS1)*%
X162030000Y-122448781D03*
%TO.P,U3,S3,SHIELD*%
%TO.N,unconnected-(U3-SHIELD-PadS1)_1*%
X177270000Y-122448781D03*
%TO.P,U3,S4,SHIELD*%
%TO.N,unconnected-(U3-SHIELD-PadS1)_2*%
X177270000Y-109113781D03*
D16*
%TO.P,U3,V1,V+*%
%TO.N,/vcc*%
X159490000Y-113241281D03*
%TO.P,U3,V2,V*%
%TO.N,/VRy2*%
X159490000Y-115781281D03*
%TO.P,U3,V3,V-*%
%TO.N,/gnd*%
X159490000Y-118321281D03*
%TD*%
D15*
%TO.P,SW5,1,1*%
%TO.N,Net-(U1-14)*%
X177743750Y-86400000D03*
%TO.P,SW5,2,2*%
%TO.N,/vcc*%
X177743750Y-92900000D03*
%TO.P,SW5,3*%
%TO.N,N/C*%
X173243750Y-86400000D03*
%TO.P,SW5,4*%
X173243750Y-92900000D03*
%TD*%
D16*
%TO.P,U2,B1A,SEL+*%
%TO.N,/JSW1*%
X126850000Y-102920000D03*
%TO.P,U2,B1B*%
%TO.N,N/C*%
X133200000Y-102920000D03*
%TO.P,U2,B2A,SEL-*%
%TO.N,/gnd*%
X126850000Y-108000000D03*
%TO.P,U2,B2B*%
%TO.N,N/C*%
X133200000Y-108000000D03*
%TO.P,U2,H1,H+*%
%TO.N,/vcc*%
X127485000Y-125780000D03*
%TO.P,U2,H2,H*%
%TO.N,/VRx1*%
X130025000Y-125780000D03*
%TO.P,U2,H3,H-*%
%TO.N,/gnd*%
X132565000Y-125780000D03*
D17*
%TO.P,U2,S1,SHIELD*%
%TO.N,unconnected-(U2-SHIELD-PadS1)_1*%
X122405000Y-108952500D03*
%TO.P,U2,S2,SHIELD*%
%TO.N,unconnected-(U2-SHIELD-PadS1)*%
X122405000Y-122287500D03*
%TO.P,U2,S3,SHIELD*%
%TO.N,unconnected-(U2-SHIELD-PadS1)_3*%
X137645000Y-122287500D03*
%TO.P,U2,S4,SHIELD*%
%TO.N,unconnected-(U2-SHIELD-PadS1)_2*%
X137645000Y-108952500D03*
D16*
%TO.P,U2,V1,V+*%
%TO.N,/vcc*%
X119865000Y-113080000D03*
%TO.P,U2,V2,V*%
%TO.N,/VRy1*%
X119865000Y-115620000D03*
%TO.P,U2,V3,V-*%
%TO.N,/gnd*%
X119865000Y-118160000D03*
%TD*%
D15*
%TO.P,SW2,1,1*%
%TO.N,/gnd*%
X114812500Y-96100000D03*
%TO.P,SW2,2,2*%
%TO.N,Net-(U1-7)*%
X114812500Y-102600000D03*
%TO.P,SW2,3*%
%TO.N,N/C*%
X110312500Y-96100000D03*
%TO.P,SW2,4*%
X110312500Y-102600000D03*
%TD*%
%TO.P,SW4,1,1*%
%TO.N,/gnd*%
X199343750Y-86600000D03*
%TO.P,SW4,2,2*%
%TO.N,Net-(U1-9)*%
X199343750Y-93100000D03*
%TO.P,SW4,3*%
%TO.N,N/C*%
X194843750Y-86600000D03*
%TO.P,SW4,4*%
X194843750Y-93100000D03*
%TD*%
%TO.P,SW3,1,1*%
%TO.N,/gnd*%
X188343750Y-77400000D03*
%TO.P,SW3,2,2*%
%TO.N,Net-(U1-8)*%
X188343750Y-83900000D03*
%TO.P,SW3,3*%
%TO.N,N/C*%
X183843750Y-77400000D03*
%TO.P,SW3,4*%
X183843750Y-83900000D03*
%TD*%
%TO.P,SW10,1,1*%
%TO.N,/gnd*%
X188450000Y-65750000D03*
%TO.P,SW10,2,2*%
%TO.N,/R1*%
X188450000Y-72250000D03*
%TO.P,SW10,3*%
%TO.N,N/C*%
X183950000Y-65750000D03*
%TO.P,SW10,4*%
X183950000Y-72250000D03*
%TD*%
%TO.P,SW1,1,1*%
%TO.N,/gnd*%
X188693750Y-95650000D03*
%TO.P,SW1,2,2*%
%TO.N,Net-(U1-6)*%
X188693750Y-102150000D03*
%TO.P,SW1,3*%
%TO.N,N/C*%
X184193750Y-95650000D03*
%TO.P,SW1,4*%
X184193750Y-102150000D03*
%TD*%
%TO.P,SW6,1,1*%
%TO.N,Net-(SW6-Pad1)*%
X114106250Y-76950000D03*
%TO.P,SW6,2,2*%
%TO.N,/vcc*%
X114106250Y-83450000D03*
%TO.P,SW6,3*%
%TO.N,N/C*%
X109606250Y-76950000D03*
%TO.P,SW6,4*%
X109606250Y-83450000D03*
%TD*%
D18*
%TO.N,/gnd*%
X193500000Y-80700000D03*
X114700000Y-107800000D03*
X193400000Y-101600000D03*
X192200000Y-73800000D03*
%TO.N,Net-(U1-7)*%
X117200000Y-105600000D03*
%TO.N,Net-(U1-8)*%
X161700000Y-96000000D03*
%TO.N,/vcc*%
X112400000Y-90700000D03*
X124500000Y-96200000D03*
X163800000Y-118300000D03*
%TO.N,Net-(U1-16)*%
X138900000Y-83200000D03*
%TO.N,Net-(U1-10)*%
X151900000Y-96300000D03*
X144100000Y-93400000D03*
%TO.N,/VRy2*%
X159700000Y-91100000D03*
%TO.N,/JSW2*%
X155500000Y-102100000D03*
%TO.N,/VRy1*%
X122300000Y-116800000D03*
%TO.N,/JSW1*%
X138200000Y-86300000D03*
X137500000Y-90400000D03*
%TO.N,/VRx2*%
X167900000Y-112300000D03*
%TD*%
D19*
%TO.N,/gnd*%
X114700000Y-107800000D02*
X114991500Y-107508500D01*
X114991500Y-107508500D02*
X126358500Y-107508500D01*
X193400000Y-101600000D02*
X188693750Y-96893750D01*
X192000000Y-74000000D02*
X191743750Y-74000000D01*
X192200000Y-73800000D02*
X192000000Y-74000000D01*
X126358500Y-107508500D02*
X126850000Y-108000000D01*
X191743750Y-74000000D02*
X188343750Y-77400000D01*
X191643750Y-80700000D02*
X188343750Y-77400000D01*
X188693750Y-96893750D02*
X188693750Y-95650000D01*
X193500000Y-80700000D02*
X191643750Y-80700000D01*
%TO.N,Net-(U1-7)*%
X138299000Y-82906243D02*
X141346043Y-79859200D01*
X148239200Y-84880800D02*
X141860000Y-91260000D01*
X117200000Y-105600000D02*
X138299000Y-84501000D01*
X157613957Y-82399200D02*
X158340800Y-83126043D01*
X158340800Y-83126043D02*
X158340800Y-84153957D01*
X154046043Y-79859200D02*
X156586043Y-82399200D01*
X158340800Y-84153957D02*
X157613957Y-84880800D01*
X157613957Y-84880800D02*
X148239200Y-84880800D01*
X156586043Y-82399200D02*
X157613957Y-82399200D01*
X138299000Y-84501000D02*
X138299000Y-82906243D01*
X141346043Y-79859200D02*
X154046043Y-79859200D01*
%TO.N,Net-(U1-8)*%
X158340800Y-91609257D02*
X158340800Y-91832357D01*
X157613957Y-92559200D02*
X143100800Y-92559200D01*
X161700000Y-92250057D02*
X159948943Y-90499000D01*
X161700000Y-96000000D02*
X161700000Y-92250057D01*
X159451057Y-90499000D02*
X158340800Y-91609257D01*
X159948943Y-90499000D02*
X159451057Y-90499000D01*
X158340800Y-91832357D02*
X157613957Y-92559200D01*
X143100800Y-92559200D02*
X141860000Y-93800000D01*
%TO.N,/vcc*%
X114106250Y-89089372D02*
X114106250Y-89000000D01*
X163800000Y-117551281D02*
X159490000Y-113241281D01*
X163800000Y-118300000D02*
X163800000Y-117551281D01*
X114106250Y-89000000D02*
X114106250Y-83450000D01*
X121216878Y-96200000D02*
X114106250Y-89089372D01*
X112400000Y-90700000D02*
X114100000Y-89000000D01*
X114100000Y-89000000D02*
X114106250Y-89000000D01*
X124500000Y-96200000D02*
X121216878Y-96200000D01*
%TO.N,Net-(U1-16)*%
X156101000Y-102348943D02*
X156101000Y-101851057D01*
X138900000Y-83200000D02*
X138900000Y-99350057D01*
X121699000Y-116551057D02*
X121699000Y-117048943D01*
X138900000Y-99350057D02*
X121699000Y-116551057D01*
X121699000Y-117048943D02*
X122051057Y-117401000D01*
X141048943Y-117401000D02*
X156101000Y-102348943D01*
X155748943Y-95151057D02*
X157100000Y-93800000D01*
X122051057Y-117401000D02*
X141048943Y-117401000D01*
X155748943Y-101499000D02*
X155748943Y-95151057D01*
X156101000Y-101851057D02*
X155748943Y-101499000D01*
%TO.N,Net-(U1-10)*%
X151900000Y-96300000D02*
X149000000Y-93400000D01*
X149000000Y-93400000D02*
X144100000Y-93400000D01*
%TO.N,/VRy2*%
X158300000Y-114591281D02*
X159490000Y-115781281D01*
X159700000Y-111348366D02*
X158300000Y-112748366D01*
X159700000Y-91100000D02*
X159700000Y-111348366D01*
X158300000Y-112748366D02*
X158300000Y-114591281D01*
%TO.N,/JSW2*%
X140619200Y-84880800D02*
X141860000Y-83640000D01*
X141346043Y-95040800D02*
X140619200Y-94313957D01*
X140619200Y-94313957D02*
X140619200Y-84880800D01*
X148440800Y-95040800D02*
X141346043Y-95040800D01*
X155500000Y-102100000D02*
X148440800Y-95040800D01*
%TO.N,/VRy1*%
X155859200Y-82399200D02*
X157100000Y-83640000D01*
X140218200Y-98881800D02*
X140218200Y-83527043D01*
X122300000Y-116800000D02*
X140218200Y-98881800D01*
X141346043Y-82399200D02*
X155859200Y-82399200D01*
X140218200Y-83527043D02*
X141346043Y-82399200D01*
%TO.N,/JSW1*%
X138200000Y-89700000D02*
X138200000Y-86300000D01*
X137500000Y-90400000D02*
X138200000Y-89700000D01*
%TO.N,/VRx2*%
X167900000Y-91900000D02*
X157100000Y-81100000D01*
X167900000Y-112300000D02*
X167900000Y-91900000D01*
%TD*%
D14*
%TO.P,U1,1,Tx*%
%TO.N,unconnected-(U1-Tx-Pad1)*%
X141860000Y-68400000D03*
%TO.P,U1,2,Rx*%
%TO.N,unconnected-(U1-Rx-Pad2)*%
X141860000Y-70940000D03*
%TO.P,U1,3,gnd*%
%TO.N,unconnected-(U1-gnd-Pad3)*%
X141860000Y-73480000D03*
%TO.P,U1,4,gnd*%
%TO.N,/gnd*%
X141860000Y-76020000D03*
%TO.P,U1,5,2*%
%TO.N,/R1*%
X141860000Y-78560000D03*
%TO.P,U1,6,3*%
%TO.N,/L1*%
X141860000Y-81100000D03*
%TO.P,U1,7,4*%
%TO.N,/JSW2*%
X141860000Y-83640000D03*
%TO.P,U1,8,5*%
%TO.N,/JSW1*%
X141860000Y-86180000D03*
%TO.P,U1,9,6*%
%TO.N,Net-(U1-6)*%
X141860000Y-88720000D03*
%TO.P,U1,10,7*%
%TO.N,Net-(U1-7)*%
X141860000Y-91260000D03*
%TO.P,U1,11,8*%
%TO.N,Net-(U1-8)*%
X141860000Y-93800000D03*
%TO.P,U1,12,9*%
%TO.N,Net-(U1-9)*%
X141860000Y-96340000D03*
%TO.P,U1,13,10*%
%TO.N,Net-(U1-10)*%
X157100000Y-96340000D03*
%TO.P,U1,14,16*%
%TO.N,Net-(U1-16)*%
X157100000Y-93800000D03*
%TO.P,U1,15,15*%
%TO.N,Net-(SW6-Pad1)*%
X157100000Y-91260000D03*
%TO.P,U1,16,14*%
%TO.N,Net-(U1-14)*%
X157100000Y-88720000D03*
%TO.P,U1,17,A0*%
%TO.N,/VRx1*%
X157100000Y-86180000D03*
%TO.P,U1,18,A1*%
%TO.N,/VRy1*%
X157100000Y-83640000D03*
%TO.P,U1,19,A2*%
%TO.N,/VRx2*%
X157100000Y-81100000D03*
%TO.P,U1,20,A3*%
%TO.N,/VRy2*%
X157100000Y-78560000D03*
%TO.P,U1,21,vcc*%
%TO.N,/gnd*%
X157100000Y-76020000D03*
%TO.P,U1,22,RST*%
%TO.N,unconnected-(U1-RST-Pad22)*%
X157100000Y-73480000D03*
%TO.P,U1,23,GND*%
%TO.N,/vcc*%
X157100000Y-70940000D03*
%TO.P,U1,24,RAW*%
%TO.N,unconnected-(U1-RAW-Pad24)*%
X157100000Y-68400000D03*
%TD*%
D15*
%TO.P,SW9,1,1*%
%TO.N,/gnd*%
X114012500Y-65400000D03*
%TO.P,SW9,2,2*%
%TO.N,/L1*%
X114012500Y-71900000D03*
%TO.P,SW9,3*%
%TO.N,N/C*%
X109512500Y-65400000D03*
%TO.P,SW9,4*%
X109512500Y-71900000D03*
%TD*%
%TO.P,SW7,1,1*%
%TO.N,Net-(U1-16)*%
X103506250Y-86350000D03*
%TO.P,SW7,2,2*%
%TO.N,/vcc*%
X103506250Y-92850000D03*
%TO.P,SW7,3*%
%TO.N,N/C*%
X99006250Y-86350000D03*
%TO.P,SW7,4*%
X99006250Y-92850000D03*
%TD*%
%TO.P,SW8,1,1*%
%TO.N,Net-(U1-10)*%
X124506250Y-86950000D03*
%TO.P,SW8,2,2*%
%TO.N,/vcc*%
X124506250Y-93450000D03*
%TO.P,SW8,3*%
%TO.N,N/C*%
X120006250Y-86950000D03*
%TO.P,SW8,4*%
X120006250Y-93450000D03*
%TD*%
D16*
%TO.P,U3,B1A,SEL+*%
%TO.N,/JSW2*%
X166475000Y-103081281D03*
%TO.P,U3,B1B*%
%TO.N,N/C*%
X172825000Y-103081281D03*
%TO.P,U3,B2A,SEL-*%
%TO.N,/gnd*%
X166475000Y-108161281D03*
%TO.P,U3,B2B*%
%TO.N,N/C*%
X172825000Y-108161281D03*
%TO.P,U3,H1,H+*%
%TO.N,/vcc*%
X167110000Y-125941281D03*
%TO.P,U3,H2,H*%
%TO.N,/VRx2*%
X169650000Y-125941281D03*
%TO.P,U3,H3,H-*%
%TO.N,/gnd*%
X172190000Y-125941281D03*
D17*
%TO.P,U3,S1,SHIELD*%
%TO.N,unconnected-(U3-SHIELD-PadS1)_3*%
X162030000Y-109113781D03*
%TO.P,U3,S2,SHIELD*%
%TO.N,unconnected-(U3-SHIELD-PadS1)*%
X162030000Y-122448781D03*
%TO.P,U3,S3,SHIELD*%
%TO.N,unconnected-(U3-SHIELD-PadS1)_1*%
X177270000Y-122448781D03*
%TO.P,U3,S4,SHIELD*%
%TO.N,unconnected-(U3-SHIELD-PadS1)_2*%
X177270000Y-109113781D03*
D16*
%TO.P,U3,V1,V+*%
%TO.N,/vcc*%
X159490000Y-113241281D03*
%TO.P,U3,V2,V*%
%TO.N,/VRy2*%
X159490000Y-115781281D03*
%TO.P,U3,V3,V-*%
%TO.N,/gnd*%
X159490000Y-118321281D03*
%TD*%
D15*
%TO.P,SW5,1,1*%
%TO.N,Net-(U1-14)*%
X177743750Y-86400000D03*
%TO.P,SW5,2,2*%
%TO.N,/vcc*%
X177743750Y-92900000D03*
%TO.P,SW5,3*%
%TO.N,N/C*%
X173243750Y-86400000D03*
%TO.P,SW5,4*%
X173243750Y-92900000D03*
%TD*%
D16*
%TO.P,U2,B1A,SEL+*%
%TO.N,/JSW1*%
X126850000Y-102920000D03*
%TO.P,U2,B1B*%
%TO.N,N/C*%
X133200000Y-102920000D03*
%TO.P,U2,B2A,SEL-*%
%TO.N,/gnd*%
X126850000Y-108000000D03*
%TO.P,U2,B2B*%
%TO.N,N/C*%
X133200000Y-108000000D03*
%TO.P,U2,H1,H+*%
%TO.N,/vcc*%
X127485000Y-125780000D03*
%TO.P,U2,H2,H*%
%TO.N,/VRx1*%
X130025000Y-125780000D03*
%TO.P,U2,H3,H-*%
%TO.N,/gnd*%
X132565000Y-125780000D03*
D17*
%TO.P,U2,S1,SHIELD*%
%TO.N,unconnected-(U2-SHIELD-PadS1)_1*%
X122405000Y-108952500D03*
%TO.P,U2,S2,SHIELD*%
%TO.N,unconnected-(U2-SHIELD-PadS1)*%
X122405000Y-122287500D03*
%TO.P,U2,S3,SHIELD*%
%TO.N,unconnected-(U2-SHIELD-PadS1)_3*%
X137645000Y-122287500D03*
%TO.P,U2,S4,SHIELD*%
%TO.N,unconnected-(U2-SHIELD-PadS1)_2*%
X137645000Y-108952500D03*
D16*
%TO.P,U2,V1,V+*%
%TO.N,/vcc*%
X119865000Y-113080000D03*
%TO.P,U2,V2,V*%
%TO.N,/VRy1*%
X119865000Y-115620000D03*
%TO.P,U2,V3,V-*%
%TO.N,/gnd*%
X119865000Y-118160000D03*
%TD*%
D15*
%TO.P,SW2,1,1*%
%TO.N,/gnd*%
X114812500Y-96100000D03*
%TO.P,SW2,2,2*%
%TO.N,Net-(U1-7)*%
X114812500Y-102600000D03*
%TO.P,SW2,3*%
%TO.N,N/C*%
X110312500Y-96100000D03*
%TO.P,SW2,4*%
X110312500Y-102600000D03*
%TD*%
%TO.P,SW4,1,1*%
%TO.N,/gnd*%
X199343750Y-86600000D03*
%TO.P,SW4,2,2*%
%TO.N,Net-(U1-9)*%
X199343750Y-93100000D03*
%TO.P,SW4,3*%
%TO.N,N/C*%
X194843750Y-86600000D03*
%TO.P,SW4,4*%
X194843750Y-93100000D03*
%TD*%
%TO.P,SW3,1,1*%
%TO.N,/gnd*%
X188343750Y-77400000D03*
%TO.P,SW3,2,2*%
%TO.N,Net-(U1-8)*%
X188343750Y-83900000D03*
%TO.P,SW3,3*%
%TO.N,N/C*%
X183843750Y-77400000D03*
%TO.P,SW3,4*%
X183843750Y-83900000D03*
%TD*%
%TO.P,SW10,1,1*%
%TO.N,/gnd*%
X188450000Y-65750000D03*
%TO.P,SW10,2,2*%
%TO.N,/R1*%
X188450000Y-72250000D03*
%TO.P,SW10,3*%
%TO.N,N/C*%
X183950000Y-65750000D03*
%TO.P,SW10,4*%
X183950000Y-72250000D03*
%TD*%
%TO.P,SW1,1,1*%
%TO.N,/gnd*%
X188693750Y-95650000D03*
%TO.P,SW1,2,2*%
%TO.N,Net-(U1-6)*%
X188693750Y-102150000D03*
%TO.P,SW1,3*%
%TO.N,N/C*%
X184193750Y-95650000D03*
%TO.P,SW1,4*%
X184193750Y-102150000D03*
%TD*%
%TO.P,SW6,1,1*%
%TO.N,Net-(SW6-Pad1)*%
X114106250Y-76950000D03*
%TO.P,SW6,2,2*%
%TO.N,/vcc*%
X114106250Y-83450000D03*
%TO.P,SW6,3*%
%TO.N,N/C*%
X109606250Y-76950000D03*
%TO.P,SW6,4*%
X109606250Y-83450000D03*
%TD*%
D18*
%TO.N,/gnd*%
X193500000Y-80700000D03*
X114700000Y-107800000D03*
X193400000Y-101600000D03*
X192200000Y-73800000D03*
%TO.N,Net-(U1-7)*%
X117200000Y-105600000D03*
%TO.N,Net-(U1-8)*%
X161700000Y-96000000D03*
%TO.N,/vcc*%
X112400000Y-90700000D03*
X124500000Y-96200000D03*
X163800000Y-118300000D03*
%TO.N,Net-(U1-16)*%
X138900000Y-83200000D03*
%TO.N,Net-(U1-10)*%
X151900000Y-96300000D03*
X144100000Y-93400000D03*
%TO.N,/VRy2*%
X159700000Y-91100000D03*
%TO.N,/JSW2*%
X155500000Y-102100000D03*
%TO.N,/VRy1*%
X122300000Y-116800000D03*
%TO.N,/JSW1*%
X138200000Y-86300000D03*
X137500000Y-90400000D03*
%TO.N,/VRx2*%
X167900000Y-112300000D03*
%TD*%
D19*
%TO.N,*%
X120006250Y-86950000D02*
X112800000Y-79743750D01*
X110643750Y-79743750D02*
X109600000Y-78700000D01*
X109600000Y-78700000D02*
X109600000Y-76956250D01*
X174343750Y-85300000D02*
X182443750Y-85300000D01*
X182443750Y-85300000D02*
X183843750Y-83900000D01*
X173243750Y-86400000D02*
X174343750Y-85300000D01*
X109600000Y-76956250D02*
X109606250Y-76950000D01*
X112800000Y-79743750D02*
X110643750Y-79743750D01*
%TO.N,/gnd*%
X105404378Y-89787500D02*
X102417750Y-86800872D01*
X114812500Y-96100000D02*
X115600000Y-95312500D01*
X188450000Y-70050000D02*
X192200000Y-73800000D01*
X131375000Y-126970000D02*
X132565000Y-125780000D01*
X123500000Y-73800000D02*
X125720000Y-76020000D01*
X152031281Y-125780000D02*
X159490000Y-118321281D01*
X113724000Y-106824000D02*
X114700000Y-107800000D01*
X125045375Y-126970000D02*
X131375000Y-126970000D01*
X197743750Y-86600000D02*
X188693750Y-95650000D01*
X166475000Y-116775000D02*
X172190000Y-122490000D01*
X121215000Y-118160000D02*
X126295000Y-123240000D01*
X115600000Y-95312500D02*
X115600000Y-90575000D01*
X102417750Y-86800872D02*
X102417750Y-81388278D01*
X172190000Y-125190000D02*
X172190000Y-125941281D01*
X172190000Y-122490000D02*
X172190000Y-125941281D01*
X188450000Y-65750000D02*
X188450000Y-70050000D01*
X122412500Y-73800000D02*
X123500000Y-73800000D01*
X126992085Y-126970000D02*
X127977915Y-126970000D01*
X136250500Y-70410500D02*
X141860000Y-76020000D01*
X141860000Y-76020000D02*
X157100000Y-76020000D01*
X115600000Y-90575000D02*
X114812500Y-89787500D01*
X199343750Y-86600000D02*
X197743750Y-86600000D01*
X166475000Y-108161281D02*
X166475000Y-116775000D01*
X114012500Y-65400000D02*
X122412500Y-73800000D01*
X193500000Y-80756250D02*
X193500000Y-80700000D01*
X128675000Y-109825000D02*
X126850000Y-108000000D01*
X159490000Y-118321281D02*
X161011281Y-116800000D01*
X126295000Y-123240000D02*
X126295000Y-126272915D01*
X169436281Y-105200000D02*
X189800000Y-105200000D01*
X189800000Y-105200000D02*
X193400000Y-101600000D01*
X102417750Y-81388278D02*
X113395528Y-70410500D01*
X127977915Y-126970000D02*
X128675000Y-126272915D01*
X132565000Y-125780000D02*
X152031281Y-125780000D01*
X113395528Y-70410500D02*
X136250500Y-70410500D01*
X128675000Y-126272915D02*
X128675000Y-109825000D01*
X114812500Y-96100000D02*
X113724000Y-97188500D01*
X161011281Y-116800000D02*
X163800000Y-116800000D01*
X119865000Y-118160000D02*
X121215000Y-118160000D01*
X163800000Y-116800000D02*
X172190000Y-125190000D01*
X119865000Y-121789625D02*
X125045375Y-126970000D01*
X114812500Y-89787500D02*
X105404378Y-89787500D01*
X113724000Y-97188500D02*
X113724000Y-106824000D01*
X125720000Y-76020000D02*
X141860000Y-76020000D01*
X199343750Y-86600000D02*
X193500000Y-80756250D01*
X119865000Y-118160000D02*
X119865000Y-121789625D01*
X166475000Y-108161281D02*
X169436281Y-105200000D01*
X126295000Y-126272915D02*
X126992085Y-126970000D01*
%TO.N,Net-(U1-6)*%
X159982915Y-114431281D02*
X157629424Y-114431281D01*
X184525550Y-97981800D02*
X145913434Y-97981800D01*
X188693750Y-102150000D02*
X184525550Y-97981800D01*
X160680000Y-112748366D02*
X160680000Y-113734196D01*
X145913434Y-97981800D02*
X160680000Y-112748366D01*
X157629424Y-114431281D02*
X140218200Y-97020057D01*
X140218200Y-90361800D02*
X141860000Y-88720000D01*
X160680000Y-113734196D02*
X159982915Y-114431281D01*
X140218200Y-97020057D02*
X140218200Y-90361800D01*
%TO.N,Net-(U1-7)*%
X117200000Y-104987500D02*
X117200000Y-105600000D01*
X114812500Y-102600000D02*
X117200000Y-104987500D01*
%TO.N,Net-(U1-8)*%
X188343750Y-83900000D02*
X176243750Y-96000000D01*
X176243750Y-96000000D02*
X161700000Y-96000000D01*
%TO.N,Net-(U1-9)*%
X194862950Y-97580800D02*
X143100800Y-97580800D01*
X199343750Y-93100000D02*
X194862950Y-97580800D01*
X143100800Y-97580800D02*
X141860000Y-96340000D01*
%TO.N,/vcc*%
X141346043Y-95099200D02*
X140619200Y-95826043D01*
X177743750Y-92900000D02*
X175544550Y-95099200D01*
X141346043Y-89960800D02*
X142373957Y-89960800D01*
X130477050Y-87479200D02*
X124506250Y-93450000D01*
X159490000Y-113241281D02*
X157006523Y-113241281D01*
X124506250Y-96193750D02*
X124500000Y-96200000D01*
X157100000Y-70940000D02*
X188679372Y-70940000D01*
X142373957Y-89960800D02*
X143100800Y-89233957D01*
X140619200Y-90687643D02*
X141346043Y-89960800D01*
X127485000Y-125780000D02*
X127485000Y-120700000D01*
X119865000Y-98091250D02*
X124506250Y-93450000D01*
X167110000Y-121610000D02*
X163800000Y-118300000D01*
X143100800Y-89233957D02*
X143100800Y-88206043D01*
X157006523Y-113241281D02*
X140619200Y-96853957D01*
X140619200Y-96853957D02*
X140619200Y-90687643D01*
X140619200Y-95826043D02*
X140619200Y-96853957D01*
X189538500Y-81105250D02*
X177743750Y-92900000D01*
X188679372Y-70940000D02*
X189538500Y-71799128D01*
X142373957Y-87479200D02*
X130477050Y-87479200D01*
X167110000Y-125941281D02*
X167110000Y-121610000D01*
X124506250Y-93450000D02*
X124506250Y-96193750D01*
X103506250Y-92850000D02*
X110250000Y-92850000D01*
X119865000Y-113080000D02*
X119865000Y-98091250D01*
X143100800Y-88206043D02*
X142373957Y-87479200D01*
X127485000Y-120700000D02*
X119865000Y-113080000D01*
X175544550Y-95099200D02*
X141346043Y-95099200D01*
X110250000Y-92850000D02*
X112400000Y-90700000D01*
X189538500Y-71799128D02*
X189538500Y-81105250D01*
%TO.N,Net-(U1-14)*%
X155859200Y-89960800D02*
X157100000Y-88720000D01*
X155859200Y-91773957D02*
X155859200Y-89960800D01*
X177743750Y-86400000D02*
X171642950Y-92500800D01*
X171642950Y-92500800D02*
X156586043Y-92500800D01*
X156586043Y-92500800D02*
X155859200Y-91773957D01*
%TO.N,Net-(SW6-Pad1)*%
X114106250Y-76950000D02*
X112924000Y-75767750D01*
X156586043Y-82399200D02*
X157613957Y-82399200D01*
X158900000Y-89460000D02*
X157100000Y-91260000D01*
X154046043Y-79859200D02*
X156586043Y-82399200D01*
X112924000Y-71449128D02*
X113561628Y-70811500D01*
X123511072Y-79859200D02*
X154046043Y-79859200D01*
X157613957Y-82399200D02*
X158900000Y-83685243D01*
X113561628Y-70811500D02*
X114463372Y-70811500D01*
X112924000Y-75767750D02*
X112924000Y-71449128D01*
X114463372Y-70811500D02*
X123511072Y-79859200D01*
X158900000Y-83685243D02*
X158900000Y-89460000D01*
%TO.N,Net-(U1-16)*%
X106531139Y-89374889D02*
X126474889Y-89374889D01*
X126474889Y-89374889D02*
X132649778Y-83200000D01*
X132649778Y-83200000D02*
X138900000Y-83200000D01*
X103506250Y-86350000D02*
X106531139Y-89374889D01*
%TO.N,Net-(U1-10)*%
X150079200Y-87420800D02*
X157613957Y-87420800D01*
X154046043Y-82399200D02*
X129057050Y-82399200D01*
X151940000Y-96340000D02*
X151900000Y-96300000D01*
X144100000Y-93400000D02*
X150079200Y-87420800D01*
X156586043Y-84939200D02*
X154046043Y-82399200D01*
X158340800Y-86693957D02*
X158340800Y-85666043D01*
X157100000Y-96340000D02*
X151940000Y-96340000D01*
X157613957Y-84939200D02*
X156586043Y-84939200D01*
X129057050Y-82399200D02*
X124506250Y-86950000D01*
X157613957Y-87420800D02*
X158340800Y-86693957D01*
X158340800Y-85666043D02*
X157613957Y-84939200D01*
%TO.N,/L1*%
X114012500Y-71900000D02*
X123212500Y-81100000D01*
X123212500Y-81100000D02*
X141860000Y-81100000D01*
%TO.N,/R1*%
X187454378Y-72250000D02*
X188450000Y-72250000D01*
X182443578Y-77260800D02*
X187454378Y-72250000D01*
X141860000Y-78560000D02*
X143159200Y-77260800D01*
X143159200Y-77260800D02*
X182443578Y-77260800D01*
%TO.N,/VRy2*%
X159700000Y-81160000D02*
X159700000Y-91100000D01*
X157100000Y-78560000D02*
X159700000Y-81160000D01*
%TO.N,/JSW2*%
X156481281Y-103081281D02*
X155500000Y-102100000D01*
X166475000Y-103081281D02*
X156481281Y-103081281D01*
%TO.N,/VRy1*%
X121045000Y-116800000D02*
X122300000Y-116800000D01*
X119865000Y-115620000D02*
X121045000Y-116800000D01*
%TO.N,/VRx1*%
X173781000Y-122068943D02*
X194001000Y-101848943D01*
X172849015Y-127532281D02*
X173781000Y-126600296D01*
X173781000Y-126600296D02*
X173781000Y-122068943D01*
X118675000Y-97741878D02*
X118675000Y-121166725D01*
X165285000Y-107668366D02*
X165285000Y-111829196D01*
X157100000Y-86180000D02*
X155859200Y-84939200D01*
X165285000Y-111829196D02*
X159982915Y-117131281D01*
X168154366Y-104799000D02*
X165285000Y-107668366D01*
X155859200Y-84939200D02*
X131477678Y-84939200D01*
X118675000Y-121166725D02*
X125040556Y-127532281D01*
X193151057Y-100999000D02*
X189351057Y-104799000D01*
X189351057Y-104799000D02*
X168154366Y-104799000D01*
X138673719Y-117131281D02*
X130025000Y-125780000D01*
X125040556Y-127532281D02*
X172849015Y-127532281D01*
X131477678Y-84939200D02*
X118675000Y-97741878D01*
X194001000Y-101351057D02*
X193648943Y-100999000D01*
X159982915Y-117131281D02*
X138673719Y-117131281D01*
X193648943Y-100999000D02*
X193151057Y-100999000D01*
X194001000Y-101848943D02*
X194001000Y-101351057D01*
%TO.N,/JSW1*%
X138320000Y-86180000D02*
X141860000Y-86180000D01*
X138200000Y-86300000D02*
X138320000Y-86180000D01*
X126850000Y-101050000D02*
X137500000Y-90400000D01*
X126850000Y-102920000D02*
X126850000Y-101050000D01*
%TO.N,/VRx2*%
X170840000Y-127131281D02*
X172682915Y-127131281D01*
X169650000Y-125941281D02*
X170840000Y-127131281D01*
X172682915Y-127131281D02*
X173380000Y-126434196D01*
X173380000Y-117780000D02*
X167900000Y-112300000D01*
X173380000Y-126434196D02*
X173380000Y-117780000D01*
%TD*%
D10*
%TO.C,U1*%
X141860000Y-68400000D03*
X141860000Y-70940000D03*
X141860000Y-73480000D03*
X141860000Y-76020000D03*
X141860000Y-78560000D03*
X141860000Y-81100000D03*
X141860000Y-83640000D03*
X141860000Y-86180000D03*
X141860000Y-88720000D03*
X141860000Y-91260000D03*
X141860000Y-93800000D03*
X141860000Y-96340000D03*
X157100000Y-96340000D03*
X157100000Y-93800000D03*
X157100000Y-91260000D03*
X157100000Y-88720000D03*
X157100000Y-86180000D03*
X157100000Y-83640000D03*
X157100000Y-81100000D03*
X157100000Y-78560000D03*
X157100000Y-76020000D03*
X157100000Y-73480000D03*
X157100000Y-70940000D03*
X157100000Y-68400000D03*
%TD*%
D11*
%TO.C,SW9*%
X114012500Y-65400000D03*
X114012500Y-71900000D03*
X109512500Y-65400000D03*
X109512500Y-71900000D03*
%TD*%
%TO.C,SW7*%
X103506250Y-86350000D03*
X103506250Y-92850000D03*
X99006250Y-86350000D03*
X99006250Y-92850000D03*
%TD*%
%TO.C,SW8*%
X124506250Y-86950000D03*
X124506250Y-93450000D03*
X120006250Y-86950000D03*
X120006250Y-93450000D03*
%TD*%
D12*
%TO.C,U3*%
X166475000Y-103081281D03*
X172825000Y-103081281D03*
X166475000Y-108161281D03*
X172825000Y-108161281D03*
X167110000Y-125941281D03*
X169650000Y-125941281D03*
X172190000Y-125941281D03*
D13*
X162030000Y-109113781D03*
X162030000Y-122448781D03*
X177270000Y-122448781D03*
X177270000Y-109113781D03*
D12*
X159490000Y-113241281D03*
X159490000Y-115781281D03*
X159490000Y-118321281D03*
%TD*%
D11*
%TO.C,SW5*%
X177743750Y-86400000D03*
X177743750Y-92900000D03*
X173243750Y-86400000D03*
X173243750Y-92900000D03*
%TD*%
D12*
%TO.C,U2*%
X126850000Y-102920000D03*
X133200000Y-102920000D03*
X126850000Y-108000000D03*
X133200000Y-108000000D03*
X127485000Y-125780000D03*
X130025000Y-125780000D03*
X132565000Y-125780000D03*
D13*
X122405000Y-108952500D03*
X122405000Y-122287500D03*
X137645000Y-122287500D03*
X137645000Y-108952500D03*
D12*
X119865000Y-113080000D03*
X119865000Y-115620000D03*
X119865000Y-118160000D03*
%TD*%
D11*
%TO.C,SW2*%
X114812500Y-96100000D03*
X114812500Y-102600000D03*
X110312500Y-96100000D03*
X110312500Y-102600000D03*
%TD*%
%TO.C,SW4*%
X199343750Y-86600000D03*
X199343750Y-93100000D03*
X194843750Y-86600000D03*
X194843750Y-93100000D03*
%TD*%
%TO.C,SW3*%
X188343750Y-77400000D03*
X188343750Y-83900000D03*
X183843750Y-77400000D03*
X183843750Y-83900000D03*
%TD*%
%TO.C,SW10*%
X188450000Y-65750000D03*
X188450000Y-72250000D03*
X183950000Y-65750000D03*
X183950000Y-72250000D03*
%TD*%
%TO.C,SW1*%
X188693750Y-95650000D03*
X188693750Y-102150000D03*
X184193750Y-95650000D03*
X184193750Y-102150000D03*
%TD*%
%TO.C,SW6*%
X114106250Y-76950000D03*
X114106250Y-83450000D03*
X109606250Y-76950000D03*
X109606250Y-83450000D03*
%TD*%
D20*
X143003095Y-62901819D02*
X143003095Y-63711342D01*
X143003095Y-63711342D02*
X143050714Y-63806580D01*
X143050714Y-63806580D02*
X143098333Y-63854200D01*
X143098333Y-63854200D02*
X143193571Y-63901819D01*
X143193571Y-63901819D02*
X143384047Y-63901819D01*
X143384047Y-63901819D02*
X143479285Y-63854200D01*
X143479285Y-63854200D02*
X143526904Y-63806580D01*
X143526904Y-63806580D02*
X143574523Y-63711342D01*
X143574523Y-63711342D02*
X143574523Y-62901819D01*
X144574523Y-63901819D02*
X144003095Y-63901819D01*
X144288809Y-63901819D02*
X144288809Y-62901819D01*
X144288809Y-62901819D02*
X144193571Y-63044676D01*
X144193571Y-63044676D02*
X144098333Y-63139914D01*
X144098333Y-63139914D02*
X144003095Y-63187533D01*
X110316667Y-63134700D02*
X110459524Y-63182319D01*
X110459524Y-63182319D02*
X110697619Y-63182319D01*
X110697619Y-63182319D02*
X110792857Y-63134700D01*
X110792857Y-63134700D02*
X110840476Y-63087080D01*
X110840476Y-63087080D02*
X110888095Y-62991842D01*
X110888095Y-62991842D02*
X110888095Y-62896604D01*
X110888095Y-62896604D02*
X110840476Y-62801366D01*
X110840476Y-62801366D02*
X110792857Y-62753747D01*
X110792857Y-62753747D02*
X110697619Y-62706128D01*
X110697619Y-62706128D02*
X110507143Y-62658509D01*
X110507143Y-62658509D02*
X110411905Y-62610890D01*
X110411905Y-62610890D02*
X110364286Y-62563271D01*
X110364286Y-62563271D02*
X110316667Y-62468033D01*
X110316667Y-62468033D02*
X110316667Y-62372795D01*
X110316667Y-62372795D02*
X110364286Y-62277557D01*
X110364286Y-62277557D02*
X110411905Y-62229938D01*
X110411905Y-62229938D02*
X110507143Y-62182319D01*
X110507143Y-62182319D02*
X110745238Y-62182319D01*
X110745238Y-62182319D02*
X110888095Y-62229938D01*
X111221429Y-62182319D02*
X111459524Y-63182319D01*
X111459524Y-63182319D02*
X111650000Y-62468033D01*
X111650000Y-62468033D02*
X111840476Y-63182319D01*
X111840476Y-63182319D02*
X112078572Y-62182319D01*
X112507143Y-63182319D02*
X112697619Y-63182319D01*
X112697619Y-63182319D02*
X112792857Y-63134700D01*
X112792857Y-63134700D02*
X112840476Y-63087080D01*
X112840476Y-63087080D02*
X112935714Y-62944223D01*
X112935714Y-62944223D02*
X112983333Y-62753747D01*
X112983333Y-62753747D02*
X112983333Y-62372795D01*
X112983333Y-62372795D02*
X112935714Y-62277557D01*
X112935714Y-62277557D02*
X112888095Y-62229938D01*
X112888095Y-62229938D02*
X112792857Y-62182319D01*
X112792857Y-62182319D02*
X112602381Y-62182319D01*
X112602381Y-62182319D02*
X112507143Y-62229938D01*
X112507143Y-62229938D02*
X112459524Y-62277557D01*
X112459524Y-62277557D02*
X112411905Y-62372795D01*
X112411905Y-62372795D02*
X112411905Y-62610890D01*
X112411905Y-62610890D02*
X112459524Y-62706128D01*
X112459524Y-62706128D02*
X112507143Y-62753747D01*
X112507143Y-62753747D02*
X112602381Y-62801366D01*
X112602381Y-62801366D02*
X112792857Y-62801366D01*
X112792857Y-62801366D02*
X112888095Y-62753747D01*
X112888095Y-62753747D02*
X112935714Y-62706128D01*
X112935714Y-62706128D02*
X112983333Y-62610890D01*
X99810417Y-84084700D02*
X99953274Y-84132319D01*
X99953274Y-84132319D02*
X100191369Y-84132319D01*
X100191369Y-84132319D02*
X100286607Y-84084700D01*
X100286607Y-84084700D02*
X100334226Y-84037080D01*
X100334226Y-84037080D02*
X100381845Y-83941842D01*
X100381845Y-83941842D02*
X100381845Y-83846604D01*
X100381845Y-83846604D02*
X100334226Y-83751366D01*
X100334226Y-83751366D02*
X100286607Y-83703747D01*
X100286607Y-83703747D02*
X100191369Y-83656128D01*
X100191369Y-83656128D02*
X100000893Y-83608509D01*
X100000893Y-83608509D02*
X99905655Y-83560890D01*
X99905655Y-83560890D02*
X99858036Y-83513271D01*
X99858036Y-83513271D02*
X99810417Y-83418033D01*
X99810417Y-83418033D02*
X99810417Y-83322795D01*
X99810417Y-83322795D02*
X99858036Y-83227557D01*
X99858036Y-83227557D02*
X99905655Y-83179938D01*
X99905655Y-83179938D02*
X100000893Y-83132319D01*
X100000893Y-83132319D02*
X100238988Y-83132319D01*
X100238988Y-83132319D02*
X100381845Y-83179938D01*
X100715179Y-83132319D02*
X100953274Y-84132319D01*
X100953274Y-84132319D02*
X101143750Y-83418033D01*
X101143750Y-83418033D02*
X101334226Y-84132319D01*
X101334226Y-84132319D02*
X101572322Y-83132319D01*
X101858036Y-83132319D02*
X102524702Y-83132319D01*
X102524702Y-83132319D02*
X102096131Y-84132319D01*
X120810417Y-84684700D02*
X120953274Y-84732319D01*
X120953274Y-84732319D02*
X121191369Y-84732319D01*
X121191369Y-84732319D02*
X121286607Y-84684700D01*
X121286607Y-84684700D02*
X121334226Y-84637080D01*
X121334226Y-84637080D02*
X121381845Y-84541842D01*
X121381845Y-84541842D02*
X121381845Y-84446604D01*
X121381845Y-84446604D02*
X121334226Y-84351366D01*
X121334226Y-84351366D02*
X121286607Y-84303747D01*
X121286607Y-84303747D02*
X121191369Y-84256128D01*
X121191369Y-84256128D02*
X121000893Y-84208509D01*
X121000893Y-84208509D02*
X120905655Y-84160890D01*
X120905655Y-84160890D02*
X120858036Y-84113271D01*
X120858036Y-84113271D02*
X120810417Y-84018033D01*
X120810417Y-84018033D02*
X120810417Y-83922795D01*
X120810417Y-83922795D02*
X120858036Y-83827557D01*
X120858036Y-83827557D02*
X120905655Y-83779938D01*
X120905655Y-83779938D02*
X121000893Y-83732319D01*
X121000893Y-83732319D02*
X121238988Y-83732319D01*
X121238988Y-83732319D02*
X121381845Y-83779938D01*
X121715179Y-83732319D02*
X121953274Y-84732319D01*
X121953274Y-84732319D02*
X122143750Y-84018033D01*
X122143750Y-84018033D02*
X122334226Y-84732319D01*
X122334226Y-84732319D02*
X122572322Y-83732319D01*
X123096131Y-84160890D02*
X123000893Y-84113271D01*
X123000893Y-84113271D02*
X122953274Y-84065652D01*
X122953274Y-84065652D02*
X122905655Y-83970414D01*
X122905655Y-83970414D02*
X122905655Y-83922795D01*
X122905655Y-83922795D02*
X122953274Y-83827557D01*
X122953274Y-83827557D02*
X123000893Y-83779938D01*
X123000893Y-83779938D02*
X123096131Y-83732319D01*
X123096131Y-83732319D02*
X123286607Y-83732319D01*
X123286607Y-83732319D02*
X123381845Y-83779938D01*
X123381845Y-83779938D02*
X123429464Y-83827557D01*
X123429464Y-83827557D02*
X123477083Y-83922795D01*
X123477083Y-83922795D02*
X123477083Y-83970414D01*
X123477083Y-83970414D02*
X123429464Y-84065652D01*
X123429464Y-84065652D02*
X123381845Y-84113271D01*
X123381845Y-84113271D02*
X123286607Y-84160890D01*
X123286607Y-84160890D02*
X123096131Y-84160890D01*
X123096131Y-84160890D02*
X123000893Y-84208509D01*
X123000893Y-84208509D02*
X122953274Y-84256128D01*
X122953274Y-84256128D02*
X122905655Y-84351366D01*
X122905655Y-84351366D02*
X122905655Y-84541842D01*
X122905655Y-84541842D02*
X122953274Y-84637080D01*
X122953274Y-84637080D02*
X123000893Y-84684700D01*
X123000893Y-84684700D02*
X123096131Y-84732319D01*
X123096131Y-84732319D02*
X123286607Y-84732319D01*
X123286607Y-84732319D02*
X123381845Y-84684700D01*
X123381845Y-84684700D02*
X123429464Y-84637080D01*
X123429464Y-84637080D02*
X123477083Y-84541842D01*
X123477083Y-84541842D02*
X123477083Y-84351366D01*
X123477083Y-84351366D02*
X123429464Y-84256128D01*
X123429464Y-84256128D02*
X123381845Y-84208509D01*
X123381845Y-84208509D02*
X123286607Y-84160890D01*
X166263095Y-100001100D02*
X166263095Y-100810623D01*
X166263095Y-100810623D02*
X166310714Y-100905861D01*
X166310714Y-100905861D02*
X166358333Y-100953481D01*
X166358333Y-100953481D02*
X166453571Y-101001100D01*
X166453571Y-101001100D02*
X166644047Y-101001100D01*
X166644047Y-101001100D02*
X166739285Y-100953481D01*
X166739285Y-100953481D02*
X166786904Y-100905861D01*
X166786904Y-100905861D02*
X166834523Y-100810623D01*
X166834523Y-100810623D02*
X166834523Y-100001100D01*
X167215476Y-100001100D02*
X167834523Y-100001100D01*
X167834523Y-100001100D02*
X167501190Y-100382052D01*
X167501190Y-100382052D02*
X167644047Y-100382052D01*
X167644047Y-100382052D02*
X167739285Y-100429671D01*
X167739285Y-100429671D02*
X167786904Y-100477290D01*
X167786904Y-100477290D02*
X167834523Y-100572528D01*
X167834523Y-100572528D02*
X167834523Y-100810623D01*
X167834523Y-100810623D02*
X167786904Y-100905861D01*
X167786904Y-100905861D02*
X167739285Y-100953481D01*
X167739285Y-100953481D02*
X167644047Y-101001100D01*
X167644047Y-101001100D02*
X167358333Y-101001100D01*
X167358333Y-101001100D02*
X167263095Y-100953481D01*
X167263095Y-100953481D02*
X167215476Y-100905861D01*
X174047917Y-84134700D02*
X174190774Y-84182319D01*
X174190774Y-84182319D02*
X174428869Y-84182319D01*
X174428869Y-84182319D02*
X174524107Y-84134700D01*
X174524107Y-84134700D02*
X174571726Y-84087080D01*
X174571726Y-84087080D02*
X174619345Y-83991842D01*
X174619345Y-83991842D02*
X174619345Y-83896604D01*
X174619345Y-83896604D02*
X174571726Y-83801366D01*
X174571726Y-83801366D02*
X174524107Y-83753747D01*
X174524107Y-83753747D02*
X174428869Y-83706128D01*
X174428869Y-83706128D02*
X174238393Y-83658509D01*
X174238393Y-83658509D02*
X174143155Y-83610890D01*
X174143155Y-83610890D02*
X174095536Y-83563271D01*
X174095536Y-83563271D02*
X174047917Y-83468033D01*
X174047917Y-83468033D02*
X174047917Y-83372795D01*
X174047917Y-83372795D02*
X174095536Y-83277557D01*
X174095536Y-83277557D02*
X174143155Y-83229938D01*
X174143155Y-83229938D02*
X174238393Y-83182319D01*
X174238393Y-83182319D02*
X174476488Y-83182319D01*
X174476488Y-83182319D02*
X174619345Y-83229938D01*
X174952679Y-83182319D02*
X175190774Y-84182319D01*
X175190774Y-84182319D02*
X175381250Y-83468033D01*
X175381250Y-83468033D02*
X175571726Y-84182319D01*
X175571726Y-84182319D02*
X175809822Y-83182319D01*
X176666964Y-83182319D02*
X176190774Y-83182319D01*
X176190774Y-83182319D02*
X176143155Y-83658509D01*
X176143155Y-83658509D02*
X176190774Y-83610890D01*
X176190774Y-83610890D02*
X176286012Y-83563271D01*
X176286012Y-83563271D02*
X176524107Y-83563271D01*
X176524107Y-83563271D02*
X176619345Y-83610890D01*
X176619345Y-83610890D02*
X176666964Y-83658509D01*
X176666964Y-83658509D02*
X176714583Y-83753747D01*
X176714583Y-83753747D02*
X176714583Y-83991842D01*
X176714583Y-83991842D02*
X176666964Y-84087080D01*
X176666964Y-84087080D02*
X176619345Y-84134700D01*
X176619345Y-84134700D02*
X176524107Y-84182319D01*
X176524107Y-84182319D02*
X176286012Y-84182319D01*
X176286012Y-84182319D02*
X176190774Y-84134700D01*
X176190774Y-84134700D02*
X176143155Y-84087080D01*
X126638095Y-99839819D02*
X126638095Y-100649342D01*
X126638095Y-100649342D02*
X126685714Y-100744580D01*
X126685714Y-100744580D02*
X126733333Y-100792200D01*
X126733333Y-100792200D02*
X126828571Y-100839819D01*
X126828571Y-100839819D02*
X127019047Y-100839819D01*
X127019047Y-100839819D02*
X127114285Y-100792200D01*
X127114285Y-100792200D02*
X127161904Y-100744580D01*
X127161904Y-100744580D02*
X127209523Y-100649342D01*
X127209523Y-100649342D02*
X127209523Y-99839819D01*
X127638095Y-99935057D02*
X127685714Y-99887438D01*
X127685714Y-99887438D02*
X127780952Y-99839819D01*
X127780952Y-99839819D02*
X128019047Y-99839819D01*
X128019047Y-99839819D02*
X128114285Y-99887438D01*
X128114285Y-99887438D02*
X128161904Y-99935057D01*
X128161904Y-99935057D02*
X128209523Y-100030295D01*
X128209523Y-100030295D02*
X128209523Y-100125533D01*
X128209523Y-100125533D02*
X128161904Y-100268390D01*
X128161904Y-100268390D02*
X127590476Y-100839819D01*
X127590476Y-100839819D02*
X128209523Y-100839819D01*
X111116667Y-93834700D02*
X111259524Y-93882319D01*
X111259524Y-93882319D02*
X111497619Y-93882319D01*
X111497619Y-93882319D02*
X111592857Y-93834700D01*
X111592857Y-93834700D02*
X111640476Y-93787080D01*
X111640476Y-93787080D02*
X111688095Y-93691842D01*
X111688095Y-93691842D02*
X111688095Y-93596604D01*
X111688095Y-93596604D02*
X111640476Y-93501366D01*
X111640476Y-93501366D02*
X111592857Y-93453747D01*
X111592857Y-93453747D02*
X111497619Y-93406128D01*
X111497619Y-93406128D02*
X111307143Y-93358509D01*
X111307143Y-93358509D02*
X111211905Y-93310890D01*
X111211905Y-93310890D02*
X111164286Y-93263271D01*
X111164286Y-93263271D02*
X111116667Y-93168033D01*
X111116667Y-93168033D02*
X111116667Y-93072795D01*
X111116667Y-93072795D02*
X111164286Y-92977557D01*
X111164286Y-92977557D02*
X111211905Y-92929938D01*
X111211905Y-92929938D02*
X111307143Y-92882319D01*
X111307143Y-92882319D02*
X111545238Y-92882319D01*
X111545238Y-92882319D02*
X111688095Y-92929938D01*
X112021429Y-92882319D02*
X112259524Y-93882319D01*
X112259524Y-93882319D02*
X112450000Y-93168033D01*
X112450000Y-93168033D02*
X112640476Y-93882319D01*
X112640476Y-93882319D02*
X112878572Y-92882319D01*
X113211905Y-92977557D02*
X113259524Y-92929938D01*
X113259524Y-92929938D02*
X113354762Y-92882319D01*
X113354762Y-92882319D02*
X113592857Y-92882319D01*
X113592857Y-92882319D02*
X113688095Y-92929938D01*
X113688095Y-92929938D02*
X113735714Y-92977557D01*
X113735714Y-92977557D02*
X113783333Y-93072795D01*
X113783333Y-93072795D02*
X113783333Y-93168033D01*
X113783333Y-93168033D02*
X113735714Y-93310890D01*
X113735714Y-93310890D02*
X113164286Y-93882319D01*
X113164286Y-93882319D02*
X113783333Y-93882319D01*
X195647917Y-84334700D02*
X195790774Y-84382319D01*
X195790774Y-84382319D02*
X196028869Y-84382319D01*
X196028869Y-84382319D02*
X196124107Y-84334700D01*
X196124107Y-84334700D02*
X196171726Y-84287080D01*
X196171726Y-84287080D02*
X196219345Y-84191842D01*
X196219345Y-84191842D02*
X196219345Y-84096604D01*
X196219345Y-84096604D02*
X196171726Y-84001366D01*
X196171726Y-84001366D02*
X196124107Y-83953747D01*
X196124107Y-83953747D02*
X196028869Y-83906128D01*
X196028869Y-83906128D02*
X195838393Y-83858509D01*
X195838393Y-83858509D02*
X195743155Y-83810890D01*
X195743155Y-83810890D02*
X195695536Y-83763271D01*
X195695536Y-83763271D02*
X195647917Y-83668033D01*
X195647917Y-83668033D02*
X195647917Y-83572795D01*
X195647917Y-83572795D02*
X195695536Y-83477557D01*
X195695536Y-83477557D02*
X195743155Y-83429938D01*
X195743155Y-83429938D02*
X195838393Y-83382319D01*
X195838393Y-83382319D02*
X196076488Y-83382319D01*
X196076488Y-83382319D02*
X196219345Y-83429938D01*
X196552679Y-83382319D02*
X196790774Y-84382319D01*
X196790774Y-84382319D02*
X196981250Y-83668033D01*
X196981250Y-83668033D02*
X197171726Y-84382319D01*
X197171726Y-84382319D02*
X197409822Y-83382319D01*
X198219345Y-83715652D02*
X198219345Y-84382319D01*
X197981250Y-83334700D02*
X197743155Y-84048985D01*
X197743155Y-84048985D02*
X198362202Y-84048985D01*
X184647917Y-75134700D02*
X184790774Y-75182319D01*
X184790774Y-75182319D02*
X185028869Y-75182319D01*
X185028869Y-75182319D02*
X185124107Y-75134700D01*
X185124107Y-75134700D02*
X185171726Y-75087080D01*
X185171726Y-75087080D02*
X185219345Y-74991842D01*
X185219345Y-74991842D02*
X185219345Y-74896604D01*
X185219345Y-74896604D02*
X185171726Y-74801366D01*
X185171726Y-74801366D02*
X185124107Y-74753747D01*
X185124107Y-74753747D02*
X185028869Y-74706128D01*
X185028869Y-74706128D02*
X184838393Y-74658509D01*
X184838393Y-74658509D02*
X184743155Y-74610890D01*
X184743155Y-74610890D02*
X184695536Y-74563271D01*
X184695536Y-74563271D02*
X184647917Y-74468033D01*
X184647917Y-74468033D02*
X184647917Y-74372795D01*
X184647917Y-74372795D02*
X184695536Y-74277557D01*
X184695536Y-74277557D02*
X184743155Y-74229938D01*
X184743155Y-74229938D02*
X184838393Y-74182319D01*
X184838393Y-74182319D02*
X185076488Y-74182319D01*
X185076488Y-74182319D02*
X185219345Y-74229938D01*
X185552679Y-74182319D02*
X185790774Y-75182319D01*
X185790774Y-75182319D02*
X185981250Y-74468033D01*
X185981250Y-74468033D02*
X186171726Y-75182319D01*
X186171726Y-75182319D02*
X186409822Y-74182319D01*
X186695536Y-74182319D02*
X187314583Y-74182319D01*
X187314583Y-74182319D02*
X186981250Y-74563271D01*
X186981250Y-74563271D02*
X187124107Y-74563271D01*
X187124107Y-74563271D02*
X187219345Y-74610890D01*
X187219345Y-74610890D02*
X187266964Y-74658509D01*
X187266964Y-74658509D02*
X187314583Y-74753747D01*
X187314583Y-74753747D02*
X187314583Y-74991842D01*
X187314583Y-74991842D02*
X187266964Y-75087080D01*
X187266964Y-75087080D02*
X187219345Y-75134700D01*
X187219345Y-75134700D02*
X187124107Y-75182319D01*
X187124107Y-75182319D02*
X186838393Y-75182319D01*
X186838393Y-75182319D02*
X186743155Y-75134700D01*
X186743155Y-75134700D02*
X186695536Y-75087080D01*
X184277976Y-63484700D02*
X184420833Y-63532319D01*
X184420833Y-63532319D02*
X184658928Y-63532319D01*
X184658928Y-63532319D02*
X184754166Y-63484700D01*
X184754166Y-63484700D02*
X184801785Y-63437080D01*
X184801785Y-63437080D02*
X184849404Y-63341842D01*
X184849404Y-63341842D02*
X184849404Y-63246604D01*
X184849404Y-63246604D02*
X184801785Y-63151366D01*
X184801785Y-63151366D02*
X184754166Y-63103747D01*
X184754166Y-63103747D02*
X184658928Y-63056128D01*
X184658928Y-63056128D02*
X184468452Y-63008509D01*
X184468452Y-63008509D02*
X184373214Y-62960890D01*
X184373214Y-62960890D02*
X184325595Y-62913271D01*
X184325595Y-62913271D02*
X184277976Y-62818033D01*
X184277976Y-62818033D02*
X184277976Y-62722795D01*
X184277976Y-62722795D02*
X184325595Y-62627557D01*
X184325595Y-62627557D02*
X184373214Y-62579938D01*
X184373214Y-62579938D02*
X184468452Y-62532319D01*
X184468452Y-62532319D02*
X184706547Y-62532319D01*
X184706547Y-62532319D02*
X184849404Y-62579938D01*
X185182738Y-62532319D02*
X185420833Y-63532319D01*
X185420833Y-63532319D02*
X185611309Y-62818033D01*
X185611309Y-62818033D02*
X185801785Y-63532319D01*
X185801785Y-63532319D02*
X186039881Y-62532319D01*
X186944642Y-63532319D02*
X186373214Y-63532319D01*
X186658928Y-63532319D02*
X186658928Y-62532319D01*
X186658928Y-62532319D02*
X186563690Y-62675176D01*
X186563690Y-62675176D02*
X186468452Y-62770414D01*
X186468452Y-62770414D02*
X186373214Y-62818033D01*
X187563690Y-62532319D02*
X187658928Y-62532319D01*
X187658928Y-62532319D02*
X187754166Y-62579938D01*
X187754166Y-62579938D02*
X187801785Y-62627557D01*
X187801785Y-62627557D02*
X187849404Y-62722795D01*
X187849404Y-62722795D02*
X187897023Y-62913271D01*
X187897023Y-62913271D02*
X187897023Y-63151366D01*
X187897023Y-63151366D02*
X187849404Y-63341842D01*
X187849404Y-63341842D02*
X187801785Y-63437080D01*
X187801785Y-63437080D02*
X187754166Y-63484700D01*
X187754166Y-63484700D02*
X187658928Y-63532319D01*
X187658928Y-63532319D02*
X187563690Y-63532319D01*
X187563690Y-63532319D02*
X187468452Y-63484700D01*
X187468452Y-63484700D02*
X187420833Y-63437080D01*
X187420833Y-63437080D02*
X187373214Y-63341842D01*
X187373214Y-63341842D02*
X187325595Y-63151366D01*
X187325595Y-63151366D02*
X187325595Y-62913271D01*
X187325595Y-62913271D02*
X187373214Y-62722795D01*
X187373214Y-62722795D02*
X187420833Y-62627557D01*
X187420833Y-62627557D02*
X187468452Y-62579938D01*
X187468452Y-62579938D02*
X187563690Y-62532319D01*
X184997917Y-93384700D02*
X185140774Y-93432319D01*
X185140774Y-93432319D02*
X185378869Y-93432319D01*
X185378869Y-93432319D02*
X185474107Y-93384700D01*
X185474107Y-93384700D02*
X185521726Y-93337080D01*
X185521726Y-93337080D02*
X185569345Y-93241842D01*
X185569345Y-93241842D02*
X185569345Y-93146604D01*
X185569345Y-93146604D02*
X185521726Y-93051366D01*
X185521726Y-93051366D02*
X185474107Y-93003747D01*
X185474107Y-93003747D02*
X185378869Y-92956128D01*
X185378869Y-92956128D02*
X185188393Y-92908509D01*
X185188393Y-92908509D02*
X185093155Y-92860890D01*
X185093155Y-92860890D02*
X185045536Y-92813271D01*
X185045536Y-92813271D02*
X184997917Y-92718033D01*
X184997917Y-92718033D02*
X184997917Y-92622795D01*
X184997917Y-92622795D02*
X185045536Y-92527557D01*
X185045536Y-92527557D02*
X185093155Y-92479938D01*
X185093155Y-92479938D02*
X185188393Y-92432319D01*
X185188393Y-92432319D02*
X185426488Y-92432319D01*
X185426488Y-92432319D02*
X185569345Y-92479938D01*
X185902679Y-92432319D02*
X186140774Y-93432319D01*
X186140774Y-93432319D02*
X186331250Y-92718033D01*
X186331250Y-92718033D02*
X186521726Y-93432319D01*
X186521726Y-93432319D02*
X186759822Y-92432319D01*
X187664583Y-93432319D02*
X187093155Y-93432319D01*
X187378869Y-93432319D02*
X187378869Y-92432319D01*
X187378869Y-92432319D02*
X187283631Y-92575176D01*
X187283631Y-92575176D02*
X187188393Y-92670414D01*
X187188393Y-92670414D02*
X187093155Y-92718033D01*
X110410417Y-74684700D02*
X110553274Y-74732319D01*
X110553274Y-74732319D02*
X110791369Y-74732319D01*
X110791369Y-74732319D02*
X110886607Y-74684700D01*
X110886607Y-74684700D02*
X110934226Y-74637080D01*
X110934226Y-74637080D02*
X110981845Y-74541842D01*
X110981845Y-74541842D02*
X110981845Y-74446604D01*
X110981845Y-74446604D02*
X110934226Y-74351366D01*
X110934226Y-74351366D02*
X110886607Y-74303747D01*
X110886607Y-74303747D02*
X110791369Y-74256128D01*
X110791369Y-74256128D02*
X110600893Y-74208509D01*
X110600893Y-74208509D02*
X110505655Y-74160890D01*
X110505655Y-74160890D02*
X110458036Y-74113271D01*
X110458036Y-74113271D02*
X110410417Y-74018033D01*
X110410417Y-74018033D02*
X110410417Y-73922795D01*
X110410417Y-73922795D02*
X110458036Y-73827557D01*
X110458036Y-73827557D02*
X110505655Y-73779938D01*
X110505655Y-73779938D02*
X110600893Y-73732319D01*
X110600893Y-73732319D02*
X110838988Y-73732319D01*
X110838988Y-73732319D02*
X110981845Y-73779938D01*
X111315179Y-73732319D02*
X111553274Y-74732319D01*
X111553274Y-74732319D02*
X111743750Y-74018033D01*
X111743750Y-74018033D02*
X111934226Y-74732319D01*
X111934226Y-74732319D02*
X112172322Y-73732319D01*
X112981845Y-73732319D02*
X112791369Y-73732319D01*
X112791369Y-73732319D02*
X112696131Y-73779938D01*
X112696131Y-73779938D02*
X112648512Y-73827557D01*
X112648512Y-73827557D02*
X112553274Y-73970414D01*
X112553274Y-73970414D02*
X112505655Y-74160890D01*
X112505655Y-74160890D02*
X112505655Y-74541842D01*
X112505655Y-74541842D02*
X112553274Y-74637080D01*
X112553274Y-74637080D02*
X112600893Y-74684700D01*
X112600893Y-74684700D02*
X112696131Y-74732319D01*
X112696131Y-74732319D02*
X112886607Y-74732319D01*
X112886607Y-74732319D02*
X112981845Y-74684700D01*
X112981845Y-74684700D02*
X113029464Y-74637080D01*
X113029464Y-74637080D02*
X113077083Y-74541842D01*
X113077083Y-74541842D02*
X113077083Y-74303747D01*
X113077083Y-74303747D02*
X113029464Y-74208509D01*
X113029464Y-74208509D02*
X112981845Y-74160890D01*
X112981845Y-74160890D02*
X112886607Y-74113271D01*
X112886607Y-74113271D02*
X112696131Y-74113271D01*
X112696131Y-74113271D02*
X112600893Y-74160890D01*
X112600893Y-74160890D02*
X112553274Y-74208509D01*
X112553274Y-74208509D02*
X112505655Y-74303747D01*
D21*
%TO.C,U1*%
X140590000Y-64590000D02*
X158370000Y-64590000D01*
X140590000Y-97610000D02*
X140590000Y-64590000D01*
X158370000Y-64590000D02*
X158370000Y-97610000D01*
X158370000Y-97610000D02*
X140590000Y-97610000D01*
%TO.C,SW9*%
X108767500Y-66507500D02*
X108767500Y-70792500D01*
X110620000Y-65655000D02*
X112905000Y-65655000D01*
X110620000Y-71645000D02*
X112905000Y-71645000D01*
X114757500Y-66507500D02*
X114757500Y-70792500D01*
D22*
X115862500Y-65400000D02*
G75*
G02*
X115662500Y-65400000I-100000J0D01*
G01*
X115662500Y-65400000D02*
G75*
G02*
X115862500Y-65400000I100000J0D01*
G01*
D21*
%TO.C,SW7*%
X98261250Y-87457500D02*
X98261250Y-91742500D01*
X100113750Y-86605000D02*
X102398750Y-86605000D01*
X100113750Y-92595000D02*
X102398750Y-92595000D01*
X104251250Y-87457500D02*
X104251250Y-91742500D01*
D22*
X105356250Y-86350000D02*
G75*
G02*
X105156250Y-86350000I-100000J0D01*
G01*
X105156250Y-86350000D02*
G75*
G02*
X105356250Y-86350000I100000J0D01*
G01*
D21*
%TO.C,SW8*%
X119261250Y-88057500D02*
X119261250Y-92342500D01*
X121113750Y-87205000D02*
X123398750Y-87205000D01*
X121113750Y-93195000D02*
X123398750Y-93195000D01*
X125251250Y-88057500D02*
X125251250Y-92342500D01*
D22*
X126356250Y-86950000D02*
G75*
G02*
X126156250Y-86950000I-100000J0D01*
G01*
X126156250Y-86950000D02*
G75*
G02*
X126356250Y-86950000I100000J0D01*
G01*
D21*
%TO.C,U3*%
X158550000Y-110881281D02*
X161700000Y-110881281D01*
X158550000Y-120681281D02*
X158550000Y-110881281D01*
X161700000Y-120681281D02*
X158550000Y-120681281D01*
X161700000Y-120951281D02*
X161700000Y-120681281D01*
X163580000Y-107781281D02*
X164200000Y-107781281D01*
X164200000Y-101481281D02*
X175100000Y-101481281D01*
X164200000Y-107781281D02*
X164200000Y-101481281D01*
X164800000Y-123681281D02*
X163580000Y-123681281D01*
X164800000Y-126881281D02*
X164800000Y-123681281D01*
X174500000Y-123681281D02*
X174500000Y-126881281D01*
X175100000Y-101481281D02*
X175100000Y-107781281D01*
X175100000Y-107781281D02*
X175730000Y-107781281D01*
X175730000Y-123681281D02*
X174500000Y-123681281D01*
X177600000Y-111681281D02*
X179150000Y-111681281D01*
X177600000Y-119781281D02*
X177600000Y-120901281D01*
X179150000Y-111681281D02*
X179150000Y-119781281D01*
X179150000Y-119781281D02*
X177600000Y-119781281D01*
D22*
X163700000Y-102431281D02*
G75*
G02*
X163500000Y-102431281I-100000J0D01*
G01*
X163500000Y-102431281D02*
G75*
G02*
X163700000Y-102431281I100000J0D01*
G01*
D21*
%TO.C,SW5*%
X172498750Y-87507500D02*
X172498750Y-91792500D01*
X174351250Y-86655000D02*
X176636250Y-86655000D01*
X174351250Y-92645000D02*
X176636250Y-92645000D01*
X178488750Y-87507500D02*
X178488750Y-91792500D01*
D22*
X179593750Y-86400000D02*
G75*
G02*
X179393750Y-86400000I-100000J0D01*
G01*
X179393750Y-86400000D02*
G75*
G02*
X179593750Y-86400000I100000J0D01*
G01*
D21*
%TO.C,U2*%
X118925000Y-110720000D02*
X122075000Y-110720000D01*
X118925000Y-120520000D02*
X118925000Y-110720000D01*
X122075000Y-120520000D02*
X118925000Y-120520000D01*
X122075000Y-120790000D02*
X122075000Y-120520000D01*
X123955000Y-107620000D02*
X124575000Y-107620000D01*
X124575000Y-101320000D02*
X135475000Y-101320000D01*
X124575000Y-107620000D02*
X124575000Y-101320000D01*
X125175000Y-123520000D02*
X123955000Y-123520000D01*
X125175000Y-126720000D02*
X125175000Y-123520000D01*
X134875000Y-123520000D02*
X134875000Y-126720000D01*
X135475000Y-101320000D02*
X135475000Y-107620000D01*
X135475000Y-107620000D02*
X136105000Y-107620000D01*
X136105000Y-123520000D02*
X134875000Y-123520000D01*
X137975000Y-111520000D02*
X139525000Y-111520000D01*
X137975000Y-119620000D02*
X137975000Y-120740000D01*
X139525000Y-111520000D02*
X139525000Y-119620000D01*
X139525000Y-119620000D02*
X137975000Y-119620000D01*
D22*
X124075000Y-102270000D02*
G75*
G02*
X123875000Y-102270000I-100000J0D01*
G01*
X123875000Y-102270000D02*
G75*
G02*
X124075000Y-102270000I100000J0D01*
G01*
D21*
%TO.C,SW2*%
X109567500Y-97207500D02*
X109567500Y-101492500D01*
X111420000Y-96355000D02*
X113705000Y-96355000D01*
X111420000Y-102345000D02*
X113705000Y-102345000D01*
X115557500Y-97207500D02*
X115557500Y-101492500D01*
D22*
X116662500Y-96100000D02*
G75*
G02*
X116462500Y-96100000I-100000J0D01*
G01*
X116462500Y-96100000D02*
G75*
G02*
X116662500Y-96100000I100000J0D01*
G01*
D21*
%TO.C,SW4*%
X194098750Y-87707500D02*
X194098750Y-91992500D01*
X195951250Y-86855000D02*
X198236250Y-86855000D01*
X195951250Y-92845000D02*
X198236250Y-92845000D01*
X200088750Y-87707500D02*
X200088750Y-91992500D01*
D22*
X201193750Y-86600000D02*
G75*
G02*
X200993750Y-86600000I-100000J0D01*
G01*
X200993750Y-86600000D02*
G75*
G02*
X201193750Y-86600000I100000J0D01*
G01*
D21*
%TO.C,SW3*%
X183098750Y-78507500D02*
X183098750Y-82792500D01*
X184951250Y-77655000D02*
X187236250Y-77655000D01*
X184951250Y-83645000D02*
X187236250Y-83645000D01*
X189088750Y-78507500D02*
X189088750Y-82792500D01*
D22*
X190193750Y-77400000D02*
G75*
G02*
X189993750Y-77400000I-100000J0D01*
G01*
X189993750Y-77400000D02*
G75*
G02*
X190193750Y-77400000I100000J0D01*
G01*
D21*
%TO.C,SW10*%
X183205000Y-66857500D02*
X183205000Y-71142500D01*
X185057500Y-66005000D02*
X187342500Y-66005000D01*
X185057500Y-71995000D02*
X187342500Y-71995000D01*
X189195000Y-66857500D02*
X189195000Y-71142500D01*
D22*
X190300000Y-65750000D02*
G75*
G02*
X190100000Y-65750000I-100000J0D01*
G01*
X190100000Y-65750000D02*
G75*
G02*
X190300000Y-65750000I100000J0D01*
G01*
D21*
%TO.C,SW1*%
X183448750Y-96757500D02*
X183448750Y-101042500D01*
X185301250Y-95905000D02*
X187586250Y-95905000D01*
X185301250Y-101895000D02*
X187586250Y-101895000D01*
X189438750Y-96757500D02*
X189438750Y-101042500D01*
D22*
X190543750Y-95650000D02*
G75*
G02*
X190343750Y-95650000I-100000J0D01*
G01*
X190343750Y-95650000D02*
G75*
G02*
X190543750Y-95650000I100000J0D01*
G01*
D21*
%TO.C,SW6*%
X108861250Y-78057500D02*
X108861250Y-82342500D01*
X110713750Y-77205000D02*
X112998750Y-77205000D01*
X110713750Y-83195000D02*
X112998750Y-83195000D01*
X114851250Y-78057500D02*
X114851250Y-82342500D01*
D22*
X115956250Y-76950000D02*
G75*
G02*
X115756250Y-76950000I-100000J0D01*
G01*
X115756250Y-76950000D02*
G75*
G02*
X115956250Y-76950000I100000J0D01*
G01*
%TD*%
D23*
X95400000Y-62100000D02*
X202200000Y-62100000D01*
X202200000Y-131300000D01*
X95400000Y-131300000D01*
X95400000Y-62100000D01*
M02*
